<?xml version="1.0" standalone="no"?>
<!DOCTYPE svg PUBLIC "-//W3C//DTD SVG 20010904//EN"
 "http://www.w3.org/TR/2001/REC-SVG-20010904/DTD/svg10.dtd">
<svg version="1.0" xmlns="http://www.w3.org/2000/svg"
 width="236.000000pt" height="236.000000pt" viewBox="0 0 236.000000 236.000000"
 preserveAspectRatio="xMidYMid meet">
<metadata>
Created by potrace 1.14, written by Peter Selinger 2001-2017
</metadata>
<g transform="translate(0.000000,236.000000) scale(0.100000,-0.100000)"
fill="#000000" stroke="none">
<path d="M14 2343 c-12 -12 -13 -131 -9 -826 3 -447 7 -850 10 -895 4 -85 22
-156 58 -227 24 -48 102 -153 131 -177 12 -9 37 -31 57 -50 83 -75 225 -139
351 -157 86 -13 1708 -12 1731 1 17 9 18 47 13 866 -5 738 -8 907 -16 907 -1
0 -3 16 -6 35 -6 52 -24 101 -35 95 -5 -4 -6 1 -3 9 12 31 -140 248 -160 228
-3 -3 -6 1 -6 9 0 15 -79 76 -92 71 -5 -1 -8 3 -8 8 0 9 -114 68 -143 74 -7 2
-19 5 -27 9 -87 32 -133 34 -983 34 -722 0 -850 -2 -863 -14z m236 -1663 c0
-5 -5 -10 -11 -10 -5 0 -7 5 -4 10 3 6 8 10 11 10 2 0 4 -4 4 -10z"/>
</g>
</svg>
